HIERARCHY
ROOT hip
{
	OFFSET 0.000000 0.000000 0.000000 
	CHANNELS 6 Xposition Yposition Zposition Zrotation Yrotation Xrotation
	JOINT abdomen
	{
		OFFSET 0.000000 20.688101 -0.731520 
		CHANNELS 3 Zrotation Xrotation Yrotation
		JOINT chest
		{
			OFFSET 0.000000 11.704300 -0.487680 
			CHANNELS 3 Zrotation Xrotation Yrotation
			JOINT neck
			{
				OFFSET 0.000000 22.189400 -2.194560 
				CHANNELS 3 Zrotation Xrotation Yrotation
				JOINT head
				{
					OFFSET -0.243840 7.071330 1.219200 
					CHANNELS 3 Zrotation Xrotation Yrotation
					End Site
					{
						OFFSET 1.000000 0.000000 0.000000 
					}
				}
			}
			JOINT rCollar
			{
				OFFSET -2.682240 19.263399 -4.876800 
				CHANNELS 3 Zrotation Xrotation Yrotation
				JOINT rShldr
				{
					OFFSET -8.778240 -1.950730 1.463040 
					CHANNELS 3 Zrotation Xrotation Yrotation
					JOINT rForeArm
					{
						OFFSET -28.174200 -1.711500 0.487680 
						CHANNELS 3 Zrotation Xrotation Yrotation
						JOINT rHand
						{
							OFFSET -22.587900 0.773209 7.071360 
							CHANNELS 3 Zrotation Xrotation Yrotation
							JOINT rThumb1
							{
								OFFSET -1.219200 -0.487915 3.413760 
								CHANNELS 3 Zrotation Xrotation Yrotation
								JOINT rThumb2
								{
									OFFSET -3.370350 -0.524490 3.413760 
									CHANNELS 3 Zrotation Xrotation Yrotation
									End Site
									{
										OFFSET -1.782710 -1.182140 1.430490 
									}
								}
							}
							JOINT rIndex1
							{
								OFFSET -7.759470 0.938293 5.608320 
								CHANNELS 3 Zrotation Xrotation Yrotation
								JOINT rIndex2
								{
									OFFSET -2.540570 -0.884171 1.565380 
									CHANNELS 3 Zrotation Xrotation Yrotation
									End Site
									{
										OFFSET -1.625190 -0.234802 1.165020 
									}
								}
							}
							JOINT rMid1
							{
								OFFSET -8.247140 1.182130 3.413760 
								CHANNELS 3 Zrotation Xrotation Yrotation
								JOINT rMid2
								{
									OFFSET -3.101650 -0.590103 1.064700 
									CHANNELS 3 Zrotation Xrotation Yrotation
									End Site
									{
										OFFSET -2.485470 -0.328903 0.837420 
									}
								}
							}
							JOINT rRing1
							{
								OFFSET -8.828220 0.546677 1.516780 
								CHANNELS 3 Zrotation Xrotation Yrotation
								JOINT rRing2
								{
									OFFSET -2.609340 -0.819778 -0.019849 
									CHANNELS 3 Zrotation Xrotation Yrotation
									End Site
									{
										OFFSET -2.338420 -0.294052 0.168128 
									}
								}
							}
							JOINT rPinky1
							{
								OFFSET -8.272020 -0.047791 -0.458400 
								CHANNELS 3 Zrotation Xrotation Yrotation
								JOINT rPinky2
								{
									OFFSET -1.827340 -0.647385 -0.700984 
									CHANNELS 3 Zrotation Xrotation Yrotation
									End Site
									{
										OFFSET -1.692250 -0.517670 -0.607171 
									}
								}
							}
						}
					}
				}
			}
			JOINT lCollar
			{
				OFFSET 2.682240 19.263399 -4.876800 
				CHANNELS 3 Zrotation Xrotation Yrotation
				JOINT lShldr
				{
					OFFSET 8.778240 -1.950730 1.463040 
					CHANNELS 3 Zrotation Xrotation Yrotation
					JOINT lForeArm
					{
						OFFSET 28.174200 -1.711500 0.487680 
						CHANNELS 3 Zrotation Xrotation Yrotation
						JOINT lHand
						{
							OFFSET 22.587900 0.773209 7.071360 
							CHANNELS 3 Zrotation Xrotation Yrotation
							JOINT lThumb1
							{
								OFFSET 1.219200 -0.487915 3.413760 
								CHANNELS 3 Zrotation Xrotation Yrotation
								JOINT lThumb2
								{
									OFFSET 3.370350 -0.524490 3.413760 
									CHANNELS 3 Zrotation Xrotation Yrotation
									End Site
									{
										OFFSET 1.782710 -1.182140 1.430490 
									}
								}
							}
							JOINT lIndex1
							{
								OFFSET 7.759470 0.938293 5.608320 
								CHANNELS 3 Zrotation Xrotation Yrotation
								JOINT lIndex2
								{
									OFFSET 2.540570 -0.884171 1.565380 
									CHANNELS 3 Zrotation Xrotation Yrotation
									End Site
									{
										OFFSET 1.625190 -0.234802 1.165020 
									}
								}
							}
							JOINT lMid1
							{
								OFFSET 8.247140 1.182130 3.413760 
								CHANNELS 3 Zrotation Xrotation Yrotation
								JOINT lMid2
								{
									OFFSET 3.101650 -0.590103 1.064700 
									CHANNELS 3 Zrotation Xrotation Yrotation
									End Site
									{
										OFFSET 2.485470 -0.328903 0.837420 
									}
								}
							}
							JOINT lRing1
							{
								OFFSET 8.828220 0.546677 1.516780 
								CHANNELS 3 Zrotation Xrotation Yrotation
								JOINT lRing2
								{
									OFFSET 2.609340 -0.819778 -0.019849 
									CHANNELS 3 Zrotation Xrotation Yrotation
									End Site
									{
										OFFSET 2.338420 -0.294052 0.168128 
									}
								}
							}
							JOINT lPinky1
							{
								OFFSET 8.272020 -0.047791 -0.458400 
								CHANNELS 3 Zrotation Xrotation Yrotation
								JOINT lPinky2
								{
									OFFSET 1.827340 -0.647385 -0.700984 
									CHANNELS 3 Zrotation Xrotation Yrotation
									End Site
									{
										OFFSET 1.692250 -0.517670 -0.607171 
									}
								}
							}
						}
					}
				}
			}
		}
	}
	JOINT rButtock
	{
		OFFSET -8.778240 4.350840 1.219200 
		CHANNELS 3 Zrotation Xrotation Yrotation
		JOINT rThigh
		{
			OFFSET 0.000000 -1.706870 -2.194560 
			CHANNELS 3 Zrotation Xrotation Yrotation
			JOINT rShin
			{
				OFFSET 0.000000 -36.819901 0.731520 
				CHANNELS 3 Zrotation Xrotation Yrotation
				JOINT rFoot
				{
					OFFSET 0.731520 -45.110401 -5.120640 
					CHANNELS 3 Zrotation Xrotation Yrotation
					End Site
					{
						OFFSET -1.122100 -3.699640 12.103000 
					}
				}
			}
		}
	}
	JOINT lButtock
	{
		OFFSET 8.778240 4.350840 1.219200 
		CHANNELS 3 Zrotation Xrotation Yrotation
		JOINT lThigh
		{
			OFFSET 0.000000 -1.706870 -2.194560 
			CHANNELS 3 Zrotation Xrotation Yrotation
			JOINT lShin
			{
				OFFSET 0.000000 -36.819901 0.731520 
				CHANNELS 3 Zrotation Xrotation Yrotation
				JOINT lFoot
				{
					OFFSET -0.731520 -45.110401 -5.120640 
					CHANNELS 3 Zrotation Xrotation Yrotation
					End Site
					{
						OFFSET 1.122100 -3.699640 12.103000 
					}
				}
			}
		}
	}
}
MOTION
Frames: 7
Frame Time: 0.008333
51.251801 76.838402 -134.091995 -0.372600 -35.395401 22.060200 -5.730360 12.115200 -6.610650 9.380520 -6.099600 -1.453140 -9.782360 1.108420 -1.432030 17.778799 -2.488580 -0.102200 0.000000 -0.000000 -0.000000 74.538597 14.727000 -3.678580 -20.940901 -14.242500 41.018902 -0.255774 -14.235400 -2.043460 0.000000 -0.000000 -0.000000 0.000000 -0.000000 -0.000000 0.000000 -0.000000 -0.000000 7.730910 5.474880 0.417314 0.000000 -0.000000 -0.000000 2.905540 0.965183 0.102902 0.000000 -0.000000 -0.000000 10.278600 0.731801 0.025912 0.000000 -0.000000 -0.000000 2.221670 -0.733487 -0.208920 0.000000 -0.000000 -0.000000 -69.034203 5.510500 -22.820999 13.230500 -6.350020 -24.018200 0.023756 4.398320 -0.619370 0.000000 -0.000000 -0.000000 0.000000 -0.000000 -0.000000 0.000000 -0.000000 -0.000000 -7.730910 5.474880 -0.417314 0.000000 -0.000000 -0.000000 -2.905540 0.965183 -0.102902 0.000000 -0.000000 -0.000000 -10.278600 0.731801 -0.025912 0.000000 -0.000000 -0.000000 -2.221670 -0.733487 0.208920 -0.000000 0.000000 -0.000000 -10.628800 -71.427498 -10.949600 -1.559800 65.246201 1.705140 -0.733560 -13.267900 -0.516476 0.000000 0.000000 0.000000 -10.507100 -9.661960 -4.990520 0.169922 33.548401 -0.881766 -0.264523 -14.079300 -3.865200 
50.735401 76.551399 -132.983994 -0.448100 -35.305599 22.212999 -5.600090 12.199800 -6.908780 9.543560 -6.107000 -1.521640 -9.757800 1.228750 -1.361610 17.826700 -2.746710 0.051662 0.000000 -0.000000 -0.000000 74.476097 14.921000 -3.983560 -21.143801 -14.522100 41.534698 -0.263007 -14.446500 -2.074920 0.000000 -0.000000 -0.000000 0.000000 -0.000000 -0.000000 0.000000 -0.000000 -0.000000 7.730910 5.474880 0.417314 0.000000 -0.000000 -0.000000 2.905540 0.965183 0.102902 0.000000 -0.000000 -0.000000 10.278600 0.731801 0.025912 0.000000 -0.000000 -0.000000 2.221670 -0.733487 -0.208920 0.000000 -0.000000 -0.000000 -68.732597 5.314140 -22.824600 13.137800 -6.279300 -23.834801 0.021758 4.207180 -0.592356 0.000000 -0.000000 -0.000000 0.000000 -0.000000 -0.000000 0.000000 -0.000000 -0.000000 -7.730910 5.474880 -0.417314 0.000000 -0.000000 -0.000000 -2.905540 0.965183 -0.102902 0.000000 -0.000000 -0.000000 -10.278600 0.731801 -0.025912 0.000000 -0.000000 -0.000000 -2.221670 -0.733487 0.208920 -0.000000 0.000000 -0.000000 -10.784200 -71.877197 -11.242400 -1.620030 65.788101 1.745140 -0.259196 -12.949200 0.783769 0.000000 0.000000 0.000000 -10.470600 -8.634500 -4.886380 0.159650 33.078899 -0.892994 -0.242758 -13.422000 -4.019250 
50.211498 76.205200 -131.917007 -0.515600 -35.049900 22.482201 -5.438050 12.194800 -7.220370 9.683810 -6.067950 -1.596790 -9.707520 1.296010 -1.337710 17.860300 -2.864270 0.092248 0.000000 -0.000000 -0.000000 74.456100 15.247000 -4.295940 -21.369499 -14.840200 42.110500 -0.280834 -14.943600 -2.149330 0.000000 -0.000000 -0.000000 0.000000 -0.000000 -0.000000 0.000000 -0.000000 -0.000000 7.730910 5.474880 0.417314 0.000000 -0.000000 -0.000000 2.905540 0.965183 0.102902 0.000000 -0.000000 -0.000000 10.278600 0.731801 0.025912 0.000000 -0.000000 -0.000000 2.221670 -0.733487 -0.208920 0.000000 -0.000000 -0.000000 -68.413200 5.021930 -22.797899 13.037700 -6.203770 -23.636900 0.019996 4.027030 -0.566911 0.000000 0.000000 -0.000000 0.000000 0.000000 -0.000000 0.000000 0.000000 -0.000000 -7.730910 5.474880 -0.417314 0.000000 0.000000 -0.000000 -2.905540 0.965183 -0.102902 0.000000 0.000000 -0.000000 -10.278600 0.731801 -0.025912 0.000000 0.000000 -0.000000 -2.221670 -0.733487 0.208920 -0.000000 0.000000 -0.000000 -10.887400 -72.291801 -11.635500 -1.686390 66.364799 1.796080 0.069907 -12.347300 1.740640 0.000000 0.000000 0.000000 -10.382400 -7.577740 -4.785870 0.148859 32.560902 -0.905170 -0.187842 -12.735400 -4.080900 
49.695301 75.826302 -130.867004 -0.677300 -34.581501 22.853701 -5.249610 12.140800 -7.545960 9.815960 -6.002380 -1.677170 -9.650180 1.348770 -1.341590 17.891100 -2.912960 0.066736 0.000000 -0.000000 -0.000000 74.459503 15.675100 -4.617790 -21.608500 -15.183500 42.731300 -0.308253 -15.645500 -2.255280 0.000000 -0.000000 -0.000000 0.000000 -0.000000 -0.000000 0.000000 -0.000000 -0.000000 7.730910 5.474880 0.417314 0.000000 -0.000000 -0.000000 2.905540 0.965183 0.102902 0.000000 -0.000000 -0.000000 10.278600 0.731801 0.025912 0.000000 -0.000000 -0.000000 2.221670 -0.733487 -0.208920 0.000000 -0.000000 -0.000000 -68.089996 4.661760 -22.733601 12.930100 -6.123060 -23.424400 0.018167 3.824010 -0.538253 0.000000 0.000000 0.000000 0.000000 0.000000 0.000000 0.000000 0.000000 0.000000 -7.730910 5.474880 -0.417314 0.000000 0.000000 0.000000 -2.905540 0.965183 -0.102902 0.000000 0.000000 0.000000 -10.278600 0.731801 -0.025912 0.000000 0.000000 0.000000 -2.221670 -0.733487 0.208920 -0.000000 0.000000 -0.000000 -10.961100 -72.650299 -12.101400 -1.761540 66.990700 1.858620 0.307432 -11.527800 2.513500 0.000000 0.000000 0.000000 -10.257200 -6.468460 -4.676400 0.137322 31.994499 -0.918032 -0.107321 -12.000600 -4.070650 
49.048599 75.485001 -129.542007 -1.159100 -34.564899 22.944300 -5.015950 12.048300 -7.900130 9.948730 -5.934210 -1.765290 -9.609650 1.379840 -1.351630 17.907200 -2.900710 0.026757 -0.000000 -0.000000 -0.000000 74.439102 16.121901 -4.925880 -21.832500 -15.510300 43.329498 -0.339210 -16.368900 -2.365550 0.000000 -0.000000 -0.000000 0.000000 -0.000000 -0.000000 0.000000 -0.000000 -0.000000 7.730910 5.474880 0.417314 0.000000 -0.000000 -0.000000 2.905540 0.965183 0.102902 0.000000 -0.000000 -0.000000 10.278600 0.731801 0.025912 0.000000 -0.000000 -0.000000 2.221670 -0.733487 -0.208920 -0.000000 -0.000000 -0.000000 -67.810699 4.257000 -22.599400 12.831600 -6.049440 -23.230700 0.017047 3.696710 -0.520289 0.000000 0.000000 0.000000 0.000000 0.000000 0.000000 0.000000 0.000000 0.000000 -7.730910 5.474880 -0.417314 0.000000 0.000000 0.000000 -2.905540 0.965183 -0.102902 0.000000 0.000000 0.000000 -10.278600 0.731801 -0.025912 0.000000 0.000000 0.000000 -2.221670 -0.733487 0.208920 -0.000000 0.000000 -0.000000 -11.152500 -72.908302 -12.771700 -1.847890 67.690498 1.937710 0.391670 -10.715800 2.894830 0.000000 0.000000 0.000000 -10.115200 -5.477190 -4.611190 0.128305 31.566999 -0.928888 -0.025909 -11.084100 -4.106880 
48.462700 75.192596 -128.220993 -1.396400 -34.470600 23.067400 -4.718190 11.927400 -8.297440 10.090700 -5.887350 -1.863640 -9.609930 1.382020 -1.346190 17.896601 -2.835450 0.023950 -0.000000 -0.000000 -0.000000 74.345100 16.504101 -5.196110 -22.017000 -15.783000 43.835602 -0.364971 -16.930300 -2.451910 0.000000 0.000000 0.000000 0.000000 0.000000 0.000000 0.000000 0.000000 0.000000 7.730910 5.474880 0.417314 0.000000 0.000000 0.000000 2.905540 0.965183 0.102902 0.000000 0.000000 0.000000 10.278600 0.731801 0.025912 0.000000 0.000000 0.000000 2.221670 -0.733487 -0.208920 -0.000000 -0.000000 -0.000000 -67.622398 3.830550 -22.362700 12.759100 -5.995350 -23.088900 0.017221 3.743750 -0.526908 0.000000 0.000000 0.000000 0.000000 0.000000 0.000000 0.000000 0.000000 0.000000 -7.730910 5.474880 -0.417314 0.000000 0.000000 0.000000 -2.905540 0.965183 -0.102902 0.000000 0.000000 0.000000 -10.278600 0.731801 -0.025912 0.000000 0.000000 0.000000 -2.221670 -0.733487 0.208920 -0.000000 0.000000 -0.000000 -11.604500 -73.019600 -13.773600 -1.949190 68.488899 2.039560 0.280109 -10.135400 2.680110 0.000000 0.000000 0.000000 -9.973210 -4.774790 -4.642130 0.125312 31.465599 -0.935093 0.040182 -9.852790 -4.307060 
47.900799 74.906097 -126.880997 -1.546100 -34.229000 23.111000 -4.350900 11.735200 -8.790580 10.259700 -5.866530 -1.986020 -9.671220 1.347620 -1.312510 17.864901 -2.699490 0.086818 -0.000000 -0.000000 -0.000000 74.159798 16.803301 -5.424390 -22.153299 -15.987700 44.213200 -0.381109 -17.274900 -2.505120 0.000000 0.000000 0.000000 0.000000 0.000000 0.000000 0.000000 0.000000 0.000000 7.730910 5.474880 0.417314 0.000000 0.000000 0.000000 2.905540 0.965183 0.102902 0.000000 0.000000 0.000000 10.278600 0.731801 0.025912 0.000000 0.000000 0.000000 2.221670 -0.733487 -0.208920 -0.000000 -0.000000 -0.000000 -67.553902 3.395500 -21.992599 12.725700 -5.970470 -23.024000 0.019638 4.049510 -0.570040 0.000000 0.000000 0.000000 0.000000 0.000000 0.000000 0.000000 0.000000 0.000000 -7.730910 5.474880 -0.417314 0.000000 0.000000 0.000000 -2.905540 0.965183 -0.102902 0.000000 0.000000 0.000000 -10.278600 0.731801 -0.025912 0.000000 0.000000 0.000000 -2.221670 -0.733487 0.208920 -0.000000 0.000000 -0.000000 -12.537800 -72.992897 -15.413100 -2.077670 69.450699 2.180450 -0.127811 -9.758930 1.522380 0.000000 0.000000 0.000000 -9.818520 -4.431850 -4.798380 0.127981 31.720900 -0.935950 0.079959 -8.318390 -4.803380 
